#!OML:ASF H:\Dans Jumps\Project 1\Capture day 1\Session 1\subject.ASF
:FULLY-SPECIFIED
:DEGREES
495
root 0.15062 17.6836 10.6423 6.90759 -2.23783 -1.40136
lowerback -5.9687 0.378559 0.264321
upperback -0.660824 0.443443 1.51426
thorax 2.65551 0.216633 1.44693
lowerneck -15.4889 0.298195 -1.91176
upperneck 15.3232 0.716687 0.747944
head 7.24103 0.300347 0.633581
rclavicle -8.51047e-015 1.47101e-014
rhumerus -26.4633 -17.2099 -81.2755
rradius 21.4204
rwrist 41.6923
rhand -15.8169 -25.8258
rfingers 7.12502
rthumb 10.3768 -55.5498
lclavicle -8.51047e-015 1.47101e-014
lhumerus -22.5763 6.63226 88.0817
lradius 13.8809
lwrist -4.13756
lhand -24.4178 -7.15211
lfingers 7.12502
lthumb 2.07386 22.8176
rfemur -10.1555 -2.21884 19.4683
rtibia 19.2896
rfoot -15.0987 2.7177
rtoes 15.3153
lfemur -8.10049 8.52521 -18.0177
ltibia 15.8656
lfoot -11.1734 7.05667
ltoes -7.91865
496
root 0.150594 17.6838 10.637 6.8892 -2.24957 -1.4027
lowerback -5.94406 0.376458 0.254161
upperback -0.659699 0.441488 1.51768
thorax 2.64283 0.215572 1.45577
lowerneck -15.5052 0.307555 -1.89063
upperneck 15.3305 0.728458 0.728351
head 7.24627 0.305356 0.625073
rclavicle 2.59662e-015 1.66979e-014
rhumerus -26.4177 -17.1177 -81.3382
rradius 21.4551
rwrist 41.6253
rhand -15.83 -25.804
rfingers 7.12502
rthumb 10.3642 -55.5285
lclavicle 2.59662e-015 1.66979e-014
lhumerus -22.5171 6.45736 88.2168
lradius 13.8668
lwrist -4.14356
lhand -24.4055 -7.21496
lfingers 7.12502
lthumb 2.08572 22.7546
rfemur -10.1627 -2.20812 19.4713
rtibia 19.3001
rfoot -15.0869 2.70735
rtoes 15.2677
lfemur -8.10413 8.52316 -18.0145
ltibia 15.8774
lfoot -11.1656 7.06015
ltoes -7.88986
497
root 0.15043 17.684 10.6317 6.87125 -2.25757 -1.41089
lowerback -5.91964 0.374234 0.251024
upperback -0.658691 0.438873 1.52227
thorax 2.63021 0.214251 1.46183
lowerneck -15.5357 0.322817 -1.85233
upperneck 15.3461 0.746484 0.69828
head 7.25664 0.313346 0.611094
rclavicle -4.32357e-015 8.74653e-015
rhumerus -26.3722 -17.0332 -81.4
rradius 21.4872
rwrist 41.5642
rhand -15.8393 -25.7868
rfingers 7.12502
rthumb 10.3552 -55.5118
lclavicle -4.32357e-015 8.74653e-015
lhumerus -22.4636 6.27856 88.3511
lradius 13.8534
lwrist -4.16782
lhand -24.4018 -7.29652
lfingers 7.12502
lthumb 2.08927 22.673
rfemur -10.1655 -2.19777 19.4826
rtibia 19.3023
rfoot -15.0716 2.69568
rtoes 15.2309
lfemur -8.11424 8.51713 -18.003
ltibia 15.9012
lfoot -11.1628 7.06634
ltoes -7.86461
498
root 0.150027 17.6841 10.6262 6.85491 -2.26197 -1.42769
lowerback -5.89188 0.371367 0.254899
upperback -0.661316 0.434967 1.52936
thorax 2.61203 0.212375 1.46635
lowerneck -15.5546 0.336098 -1.81792
upperneck 15.365 0.761776 0.672031
head 7.26616 0.320129 0.59868
rclavicle -1.16786e-015 -4.37326e-015
rhumerus -26.3311 -16.9513 -81.459
rradius 21.5159
rwrist 41.5103
rhand -15.8437 -25.771
rfingers 7.12502
rthumb 10.3509 -55.4963
lclavicle -1.16786e-015 -4.37326e-015
lhumerus -22.4195 6.07366 88.4921
lradius 13.8559
lwrist -4.16619
lhand -24.3768 -7.27526
lfingers 7.12502
lthumb 2.11348 22.694
rfemur -10.1662 -2.17997 19.5048
rtibia 19.2971
rfoot -15.0519 2.67691
rtoes 15.2084
lfemur -8.13339 8.50741 -17.9811
ltibia 15.9368
lfoot -11.1628 7.07561
ltoes -7.84387
499
root 0.149373 17.6841 10.6206 6.83936 -2.26354 -1.45546
lowerback -5.8623 0.368408 0.267718
upperback -0.664407 0.430297 1.53999
thorax 2.59243 0.210198 1.46942
lowerneck -15.5748 0.351395 -1.78133
upperneck 15.3876 0.779294 0.646009
head 7.27705 0.328103 0.586243
rclavicle 5.29264e-015 -5.1684e-015
rhumerus -26.2866 -16.8759 -81.5166
rradius 21.5383
rwrist 41.4684
rhand -15.8482 -25.7654
rfingers 7.12502
rthumb 10.3466 -55.4908
lclavicle 5.29264e-015 -5.1684e-015
lhumerus -22.3796 5.84159 88.6418
lradius 13.8747
lwrist -4.12919
lhand -24.3274 -7.15043
lfingers 7.12502
lthumb 2.16116 22.8184
rfemur -10.1651 -2.15349 19.5407
rtibia 19.2854
rfoot -15.0282 2.64973
rtoes 15.1873
lfemur -8.16054 8.49226 -17.9461
ltibia 15.9833
lfoot -11.1612 7.09176
ltoes -7.84052
500
root 0.148638 17.684 10.6149 6.82376 -2.26166 -1.48873
lowerback -5.83342 0.365013 0.287092
upperback -0.667845 0.424599 1.55192
thorax 2.57291 0.207568 1.47008
lowerneck -15.5811 0.36136 -1.75984
upperneck 15.41 0.790325 0.633477
head 7.28549 0.333344 0.579938
rclavicle 5.42931e-015 2.26615e-014
rhumerus -26.2416 -16.8049 -81.5717
rradius 21.5539
rwrist 41.4381
rhand -15.8603 -25.7571
rfingers 7.12502
rthumb 10.3349 -55.4832
lclavicle 5.42931e-015 2.26615e-014
lhumerus -22.344 5.58146 88.7993
lradius 13.9009
lwrist -4.05976
lhand -24.2803 -6.99775
lfingers 7.12502
lthumb 2.20669 22.9706
rfemur -10.1609 -2.1279 19.5833
rtibia 19.2692
rfoot -15.0035 2.62121
rtoes 15.1607
lfemur -8.19225 8.47712 -17.9047
ltibia 16.038
lfoot -11.1612 7.10935
ltoes -7.85477
